<?xml version="1.0" standalone="no"?>
<!DOCTYPE svg PUBLIC "-//W3C//DTD SVG 20010904//EN"
 "http://www.w3.org/TR/2001/REC-SVG-20010904/DTD/svg10.dtd">
<svg version="1.0" xmlns="http://www.w3.org/2000/svg"
 width="512.000000pt" height="512.000000pt" viewBox="0 0 512.000000 512.000000"
 preserveAspectRatio="xMidYMid meet">
<metadata>
Created by potrace 1.11, written by Peter Selinger 2001-2013
</metadata>
<g transform="translate(0.000000,512.000000) scale(0.100000,-0.100000)"
fill="#000000" stroke="none">
<path d="M0 2560 l0 -2560 2560 0 2560 0 0 2560 0 2560 -2560 0 -2560 0 0
-2560z m2991 2175 c324 -57 740 -278 769 -409 9 -40 8 -40 -61 -109 -38 -38
-80 -83 -94 -101 -20 -26 -200 -484 -536 -1361 -169 -442 -390 -1018 -449
-1170 -22 -55 -109 -282 -195 -504 -85 -222 -166 -424 -180 -447 -65 -111
-203 -202 -341 -225 -254 -42 -507 147 -542 406 -18 132 -12 151 268 875 74
192 154 399 264 688 35 92 92 239 126 327 34 88 90 234 125 325 35 91 135 352
223 580 88 228 197 512 242 630 l82 214 -4 125 -3 125 34 23 c28 19 47 23 110
23 42 0 114 -7 162 -15z"/>
<path d="M2891 4633 c-23 -18 -23 -20 -8 -50 49 -95 364 -236 558 -250 123 -9
150 22 82 91 -97 97 -368 210 -538 223 -59 5 -74 3 -94 -14z"/>
<path d="M3005 3099 c-155 -157 -252 -210 -470 -260 -49 -11 -114 -29 -142
-40 -69 -24 -178 -105 -246 -180 -47 -52 -61 -77 -110 -207 -121 -319 -266
-698 -453 -1177 l-98 -250 0 -95 c-1 -82 2 -102 25 -151 32 -68 110 -148 175
-179 40 -20 65 -24 139 -24 79 -1 98 3 153 28 67 31 137 98 165 158 8 18 108
276 222 573 114 297 222 578 240 625 18 47 107 279 198 515 91 237 191 495
222 574 30 79 54 148 53 152 -2 5 -34 -23 -73 -62z m-466 -833 c7 -8 11 -27 9
-43 -3 -25 -7 -28 -38 -28 -33 0 -35 2 -32 30 2 23 1 27 -7 15 -6 -8 -11 -11
-11 -6 0 16 32 46 50 46 10 0 23 -6 29 -14z m-613 -543 c-13 -24 -15 -25 -16
-7 0 11 5 25 12 32 19 19 21 6 4 -25z m266 -433 c5 0 7 8 4 18 -7 16 -6 16 10
0 19 -19 11 -38 -16 -38 -24 0 -34 16 -24 38 7 16 7 16 11 0 3 -10 9 -18 15
-18z"/>
<path d="M2490 2266 c0 -2 9 -6 20 -9 11 -3 18 -1 14 4 -5 9 -34 13 -34 5z"/>
<path d="M2526 2225 c-3 -8 -1 -15 4 -15 6 0 10 7 10 15 0 8 -2 15 -4 15 -2 0
-6 -7 -10 -15z"/>
<path d="M2485 2210 c-3 -5 -1 -10 4 -10 6 0 11 5 11 10 0 6 -2 10 -4 10 -3 0
-8 -4 -11 -10z"/>
</g>
</svg>
